<svg width="131" height="55" viewBox="0 0 131 55" fill="none" xmlns="http://www.w3.org/2000/svg">
<path d="M44.064 4.232C41.376 8.168 38.784 12.968 36.192 16.808C35.04 16.136 31.968 13.832 28.32 13.928C23.712 14.024 19.008 15.272 22.08 18.248C24.864 20.84 35.424 21.416 39.168 26.504C40.704 28.616 41.088 31.304 40.416 34.184C39.072 40.616 33.024 47.912 24.864 51.176C20.544 52.808 16.512 53.48 12.768 53.48C8.448 53.48 4.416 52.616 0.768 51.368L5.184 37.832C7.872 39.272 12 41 16.224 41C19.296 41 22.464 40.04 25.344 37.448C27.36 35.624 23.904 33.8 20.448 32.744C12.864 30.248 4.704 25.832 7.2 16.136C9.408 7.688 20.064 0.199999 31.104 0.199999C35.52 0.199999 40.032 1.448 44.064 4.232ZM41.7458 54.728C42.4178 45.416 43.7617 37.352 45.3938 29.864C47.2178 20.936 49.5218 12.776 51.7298 4.52C58.1618 2.888 63.7298 2.12 68.4338 2.12C84.3698 2.12 90.2258 10.76 88.0178 21.128C85.0418 34.856 67.9538 51.56 41.7458 54.728ZM55.8578 38.888C60.4658 37.256 63.2498 35.624 67.6658 31.496C70.7378 28.808 73.6178 25.736 74.2898 22.376C74.4818 21.416 74.4818 20.456 74.2898 19.496C73.6178 15.56 69.4898 14.504 64.9778 14.504C63.7298 14.504 62.2898 14.6 61.0418 14.696C59.8898 19.112 58.7378 23.72 57.7778 28.328C57.0098 31.88 56.3378 35.432 55.8578 38.888ZM130.613 3.272L127.445 15.272C124.949 14.312 122.549 13.832 120.341 13.832C110.069 13.832 102.581 23.24 101.045 30.44C100.565 32.552 100.661 34.472 101.333 35.912C102.389 38.408 104.117 40.424 108.053 40.424C111.029 40.424 115.349 39.272 121.781 36.2L122.837 47.912C114.773 51.56 108.245 53.096 103.061 53.096C89.9093 53.096 85.5892 43.208 87.8933 31.88C90.4853 19.4 104.213 1.352 121.109 1.352C124.181 1.352 127.445 1.928 130.613 3.272Z" fill="white"/>
</svg>
